<svg width="416" height="294" viewBox="0 0 416 294" fill="none" xmlns="http://www.w3.org/2000/svg">
<path d="M407.308 45.9083C402.524 27.838 388.429 13.6069 370.528 8.77729C338.088 0 208 0 208 0C208 0 77.9134 0 45.4724 8.77729C27.5713 13.6069 13.4728 27.838 8.69171 45.9083C0 78.6613 0 147 0 147C0 147 0 215.335 8.69171 248.092C13.4728 266.164 27.5713 280.391 45.4706 285.226C77.9116 294 207.998 294 207.998 294C207.998 294 338.087 294 370.526 285.226C388.427 280.393 402.522 266.164 407.306 248.094C416 215.337 416 147.002 416 147.002C416 147.002 416 78.6631 407.306 45.91" fill="#FF0000"/>
<path d="M207.5 87L154.247 111.477L207.5 135.953L260.753 111.477L207.5 87ZM151 115.123V182.108L205.157 207V140.016L151 115.123ZM264 115.123L209.843 140.016V207L264 182.108V115.123Z" fill="white"/>
</svg>
